<?xml version="1.0" encoding="UTF-8"?>
<svg width="531px" height="134px" viewBox="0 0 531 134" version="1.1" xmlns="http://www.w3.org/2000/svg" xmlns:xlink="http://www.w3.org/1999/xlink">
    <!-- Generator: Sketch 57.1 (83088) - https://sketch.com -->
    <title>uya-mp-logo</title>
    <desc>Created with Sketch.</desc>
    <g id="Page-1" stroke="none" stroke-width="1" fill="none" fill-rule="evenodd">
        <g id="Artboard" transform="translate(-72.000000, -71.000000)" fill-rule="nonzero">
            <g id="uya-mp-logo" transform="translate(72.000000, 71.000000)">
                <path d="M17.29,72 L17.29,99 C17.29,101 17.61,104 19.88,106 C21.6034345,107.333249 23.7560881,107.98794 25.93,107.84 C28.09,107.84 30.14,107.62 32.09,105.84 C33.8345181,104.017871 34.7342471,101.547244 34.57,99.03 L34.57,72 L51.86,72 L51.86,102.14 C51.86,106.25 51.53,110.68 47.21,115.14 C41.27,121.31 33,122 26.36,122 C19.12,122 10.26,121.25 4.54,115.09 C0.86,111.15 0,106.83 0,102.18 L0,79.51 L17.29,72 Z" id="Path" fill="#FDBFAF"></path>
                <path d="M72.22,133.84 L54.94,133.84 L54.94,72 L72.22,72 L72.22,77.3 C75.7724047,72.7869677 81.2596203,70.2327022 87,70.42 C93.4334328,70.3562673 99.6230772,72.8782411 104.18,77.42 C109.020032,82.423354 111.665355,89.150033 111.53,96.11 C111.672253,103.284214 108.859074,110.201454 103.75,115.24 C99.3676598,119.60382 93.4243706,122.037293 87.24,122 C81.592413,122.062193 76.1679353,119.798378 72.24,115.74 L72.22,133.84 Z M75,88.36 C72.8653633,90.4012717 71.6579676,93.2264489 71.6579676,96.18 C71.6579676,99.1335511 72.8653633,101.958728 75,104 C77.0647118,106.063533 79.8609145,107.228019 82.78,107.24 C85.6862107,107.281166 88.4775385,106.106633 90.48,104 C92.5279123,101.959979 93.7252066,99.2187108 93.83,96.33 C93.7723704,93.3341267 92.5742838,90.4730244 90.48,88.33 C88.4867829,86.2280098 85.706541,85.053566 82.81,85.09 C79.8746427,85.0942868 77.0627547,86.2716073 75,88.36 Z" id="Shape" fill="#FDBFAF"></path>
                <polygon id="Path" fill="#FDBFAF" points="143 113.74 123.6 79.07 139.76 72.07 152.62 96.81 165.14 72 184.91 72 152.28 133.8 132.94 133.8"></polygon>
                <path d="M228.47,114 C222.1,120.27 214.64,122 206.86,122 C199.86,122 192.06,120.6 185.36,114 C180.499357,109.355321 177.798793,102.892092 177.91,96.17 C177.801758,89.4834889 180.504553,83.0584543 185.36,78.46 C189.36,74.57 196.36,70.46 206.86,70.46 C217.56,70.46 224.47,74.67 228.47,78.46 C233.325447,83.0584543 236.028242,89.4834889 235.92,96.17 C236.031207,102.892092 233.330643,109.355321 228.47,114 L228.47,114 Z M199.19,88.25 C196.028125,91.3941342 195.077158,96.1360398 196.782209,100.256214 C198.487259,104.376388 202.510971,107.059623 206.97,107.050026 C209.852438,107.016709 212.606628,105.85327 214.64,103.81 C216.758897,101.81422 217.972318,99.0406861 218,96.13 C217.917151,93.1748312 216.720552,90.3601428 214.65,88.25 C210.345015,84.0777938 203.504985,84.0777938 199.2,88.25 L199.19,88.25 Z" id="Shape" fill="#FDBFAF"></path>
                <path d="M255.56,72 L255.56,99 C255.56,101 255.89,104 258.16,106 C259.869808,107.322351 262.002819,107.976475 264.16,107.84 C266.32,107.84 268.37,107.62 270.31,105.84 C272.058159,104.019557 272.961592,101.548722 272.8,99.03 L272.8,72 L290.08,72 L290.08,102.14 C290.08,106.25 289.76,110.68 285.44,115.14 C279.5,121.3 271.18,121.94 264.59,121.94 C257.35,121.94 248.49,121.19 242.76,115.03 C239.09,111.14 238.23,106.82 238.23,102.17 L238.23,72 L255.56,72 Z" id="Path" fill="#FDBFAF"></path>
                <path d="M292.8,72 L310.09,72 L310.09,79.89 C311.599219,76.9997534 313.977713,74.6562373 316.89,73.19 C319.684361,71.8117508 322.775988,71.1453335 325.89,71.25 C326.32,71.25 327.08,71.35 329.35,71.46 L329.35,87.82 C327.051577,86.6165293 324.483516,86.0209869 321.89,86.09 C319.026994,85.9236668 316.207429,86.8492272 314,88.68 C310.33,92.03 310.12,97.11 310.12,99.68 L310.12,120.31 L292.8,120.31 L292.8,72 Z" id="Path" fill="#FDBFAF"></path>
                <path d="M381.34,70.09 L396.54,70.09 L396.54,117.15 L381.34,117.15 L381.34,111.46 C377.23,117.79 371.34,118.74 367.41,118.74 C360.66,118.74 354.96,117.05 349.79,111.56 C345.275521,106.817115 342.810959,100.486854 342.93,93.94 C342.93,86.02 345.88,79.27 350.21,74.94 C354.579105,70.6874729 360.474628,68.3703449 366.57,68.51 C370.57,68.51 377.01,69.46 381.34,75.37 L381.34,70.09 Z M362,85 C359.724156,87.2572358 358.467368,90.3450339 358.52,93.55 C358.45242,96.6644024 359.58365,99.6857892 361.68,101.99 C364.058755,104.384676 367.304843,105.715572 370.68,105.68 C373.647774,105.676322 376.494094,104.501137 378.6,102.41 C383.436138,97.6044888 383.529564,89.8100487 378.81,84.89 C376.491761,82.8036669 373.488751,81.6401784 370.37,81.6199119 C367.245199,81.6080011 364.240219,82.8214819 362,85 Z" id="Shape" fill="#FDBFAF"></path>
                <path d="M470.26,48.15 L449.49,18.24 C449.195651,17.7001433 448.629888,17.3642232 448.015,17.3642232 C447.400112,17.3642232 446.834349,17.7001433 446.54,18.24 L437.67,31 C437.67,30.92 437.59,30.84 437.54,30.76 L416.77,0.87 C416.47412,0.33522942 415.911166,0.0033265027 415.3,0.0033265027 C414.688834,0.0033265027 414.12588,0.33522942 413.83,0.87 L393.06,30.78 C392.25,31.95 392.75,32.9 394.17,32.9 L403.26,32.9 L403.26,122.55 C403.265482,123.972618 404.417382,125.124518 405.84,125.13 L424.76,125.13 C426.182618,125.124518 427.334518,123.972618 427.34,122.55 L427.34,120.68 L414.49,120.68 L414.49,80.3 L403.29,80.3 L424.29,50.3 L436,50.3 L436,80.3 L457,50.3 L469.2,50.3 C470.57,50.27 471.07,49.31 470.26,48.15 Z M427.34,45.9 L427.34,32.9 L436.34,32.9 L427.34,45.9 Z" id="Shape" fill="#6CC4C7"></path>
                <path d="M436,121.45 C436,122.876521 437.153489,124.034492 438.58,124.04 L457.49,124.04 C458.916511,124.034492 460.07,122.876521 460.07,121.45 L460.07,120.68 L447.17,120.68 L447.17,80.3 L436,80.3 L436,121.45 L436,121.45 Z" id="Path" fill="#6CC4C7"></path>
                <polygon id="Path" fill="#FDBFAF" points="510.99 70.42 500.54 92.19 485.6 70.42 470.64 70.42 470.64 78.46 490.26 109.15 480.17 129.44 166.87 129.44 164.68 133.84 497.32 133.84 530.76 70.42"></polygon>
            </g>
        </g>
    </g>
</svg>