<svg xmlns="http://www.w3.org/2000/svg" viewBox="0 0 428.7 110.28"><defs><style>.cls-1{fill:#ec6897;}.cls-2{fill:#767575;}.cls-3{fill:#3da1a7;}</style></defs><title>Asset 3</title><g id="Layer_2" data-name="Layer 2"><g id="Layer_1-2" data-name="Layer 1"><path class="cls-1" d="M366.72,7.21l-12.13,19,1.78-.05V99.4h11.14v-40h-8.57v-9l.08-.1a13.39,13.39,0,0,0,11-12.45l.11-.13,15.95-.06Z"/><path class="cls-2" d="M30.87,92.29V85.94H30.6a14,14,0,0,1-6.17,5.73,18.14,18.14,0,0,1-7.76,1.76,22,22,0,0,1-8.25-1.32,11.93,11.93,0,0,1-5.07-3.75,14.67,14.67,0,0,1-2.6-5.9A36.83,36.83,0,0,1,0,74.74v-28H12.52V72.45c0,3.76.59,6.56,1.77,8.42s3.26,2.78,6.26,2.78q5.11,0,7.41-3.05t2.29-10V46.69H42.77v45.6Z"/><path class="cls-2" d="M56.86,46.69v5.82H57a13.81,13.81,0,0,1,5.82-5.38,18,18,0,0,1,7.76-1.67,19.82,19.82,0,0,1,9.27,2,19.16,19.16,0,0,1,6.43,5.39,22.7,22.7,0,0,1,3.8,7.8A34.81,34.81,0,0,1,91.34,70a31.41,31.41,0,0,1-1.23,8.81,22.58,22.58,0,0,1-3.75,7.5,18.59,18.59,0,0,1-6.26,5.2,18.79,18.79,0,0,1-8.78,1.94,17.89,17.89,0,0,1-7.81-1.71,14.78,14.78,0,0,1-5.86-5.08h-.18v21.61H45V46.69ZM73.13,82.85a9.93,9.93,0,0,0,3.35-3.22A13.19,13.19,0,0,0,78.29,75a27.49,27.49,0,0,0,.53-5.38,24.9,24.9,0,0,0-.58-5.38,14.43,14.43,0,0,0-1.89-4.72A10.66,10.66,0,0,0,73,56.17a9.49,9.49,0,0,0-5.07-1.28,9.68,9.68,0,0,0-5.16,1.28,10.39,10.39,0,0,0-3.35,3.31,13.69,13.69,0,0,0-1.81,4.68A27.93,27.93,0,0,0,57,69.62,24.77,24.77,0,0,0,57.61,75a13.62,13.62,0,0,0,1.85,4.63,9.79,9.79,0,0,0,3.39,3.22,11.27,11.27,0,0,0,10.28,0Z"/><path class="cls-2" d="M127.69,106.3q-3.61,2.39-10,2.38c-1.29,0-2.57,0-3.84-.13s-2.54-.19-3.83-.31V97.92l3.61.36a28.73,28.73,0,0,0,3.71.09A4.92,4.92,0,0,0,121,96.43a6.31,6.31,0,0,0,1.19-3.71,7.56,7.56,0,0,0-.53-2.82l-16-42.78H119l10.32,31.22h.18l10-31.22h13l-19,51.25Q131.32,103.92,127.69,106.3Z"/><path class="cls-2" d="M149.54,60a20.84,20.84,0,0,1,12.17-12.43,26,26,0,0,1,9.7-1.72,26.33,26.33,0,0,1,9.75,1.72A20.76,20.76,0,0,1,193.37,60,27.94,27.94,0,0,1,195.05,70a27.56,27.56,0,0,1-1.68,9.88,21.36,21.36,0,0,1-4.76,7.54,20.65,20.65,0,0,1-7.45,4.81,27,27,0,0,1-9.75,1.68,26.57,26.57,0,0,1-9.7-1.68,20.74,20.74,0,0,1-7.41-4.81,21.22,21.22,0,0,1-4.76-7.54A27.56,27.56,0,0,1,147.86,70,27.94,27.94,0,0,1,149.54,60ZM160.91,75.3A14.35,14.35,0,0,0,162.72,80a9.62,9.62,0,0,0,3.4,3.31,10.28,10.28,0,0,0,5.29,1.24,10.55,10.55,0,0,0,5.34-1.24A9.5,9.5,0,0,0,180.19,80,14.11,14.11,0,0,0,182,75.3a26.14,26.14,0,0,0,.53-5.34,26.72,26.72,0,0,0-.53-5.37,13.68,13.68,0,0,0-1.8-4.68,10.2,10.2,0,0,0-3.44-3.31,10.35,10.35,0,0,0-5.34-1.27,10.08,10.08,0,0,0-5.29,1.27,10.35,10.35,0,0,0-3.4,3.31,13.89,13.89,0,0,0-1.81,4.68,27.46,27.46,0,0,0-.52,5.37A26.86,26.86,0,0,0,160.91,75.3Z"/><path class="cls-2" d="M228.09,92.72V86.37h-.26a14.07,14.07,0,0,1-6.17,5.73,18.19,18.19,0,0,1-7.76,1.77,21.7,21.7,0,0,1-8.25-1.33,11.87,11.87,0,0,1-5.07-3.74,14.51,14.51,0,0,1-2.6-5.91,36.83,36.83,0,0,1-.75-7.72V47.12h12.52V72.88q0,5.64,1.76,8.42t6.27,2.78c3.41,0,5.87-1,7.4-3s2.3-5.36,2.3-10V47.12H240v45.6Z"/><path class="cls-2" d="M255.5,47.12v8.47h.17a15.72,15.72,0,0,1,5.83-7,16.81,16.81,0,0,1,4.14-2,15,15,0,0,1,4.59-.7,9.9,9.9,0,0,1,2.73.44V58c-.59-.12-1.29-.22-2.12-.31a21.74,21.74,0,0,0-2.38-.13,13.27,13.27,0,0,0-5.82,1.15,9.94,9.94,0,0,0-3.83,3.13,12.47,12.47,0,0,0-2.08,4.63,25.24,25.24,0,0,0-.61,5.73V92.72H243.59V47.12Z"/><path class="cls-2" d="M404,107.89q-3.62,2.39-10.05,2.39c-1.3,0-2.57,0-3.84-.14s-2.54-.19-3.84-.31V99.51l3.62.36a26.94,26.94,0,0,0,3.7.09A4.89,4.89,0,0,0,397.25,98a6.24,6.24,0,0,0,1.19-3.71,7.56,7.56,0,0,0-.52-2.82L382,48.72h13.32l10.32,31.21h.18l10-31.21h13L409.65,100Q407.61,105.51,404,107.89Z"/><path class="cls-2" d="M330,56.7a10,10,0,0,0-1.76-5.14,12.68,12.68,0,0,0-4.76-3.92,21.27,21.27,0,0,0-6.44-1.9,51.6,51.6,0,0,0-7-.49,38.33,38.33,0,0,0-7.54.75,21.45,21.45,0,0,0-6.75,2.52,14.87,14.87,0,0,0-4.93,4.67,14.52,14.52,0,0,0-2.21,7.32H301.2q.36-3.7,2.47-5.29a9.5,9.5,0,0,1,5.83-1.59,22,22,0,0,1,3.13.22,6.94,6.94,0,0,1,2.55.88A4.88,4.88,0,0,1,317,56.59a6.66,6.66,0,0,1,.66,3.22,3.36,3.36,0,0,1-1.15,2.95,8.34,8.34,0,0,1-3.35,1.54,32.9,32.9,0,0,1-4.85.8c-1.82.18-3.68.41-5.56.7s-3.74.7-5.6,1.19a16.29,16.29,0,0,0-4.94,2.25,11.48,11.48,0,0,0-3.52,4,13.15,13.15,0,0,0-1.37,6.39,14.41,14.41,0,0,0,1.19,6.09A11.53,11.53,0,0,0,291.77,90a13.83,13.83,0,0,0,4.94,2.47,22.35,22.35,0,0,0,6.08.79A28.41,28.41,0,0,0,311.08,92a16.26,16.26,0,0,0,7.06-4.32,18.73,18.73,0,0,0,.31,2.25,16.36,16.36,0,0,0,.57,2.16h11ZM317.61,74.45a23.39,23.39,0,0,1-.22,2.82,9.54,9.54,0,0,1-1.19,3.48,8.35,8.35,0,0,1-3,3,11.09,11.09,0,0,1-5.73,1.23,16.32,16.32,0,0,1-2.91-.26,7.06,7.06,0,0,1-2.47-.93,4.66,4.66,0,0,1-1.68-1.81,5.88,5.88,0,0,1-.62-2.82,6.15,6.15,0,0,1,.62-2.91,5.77,5.77,0,0,1,1.63-1.9,8.69,8.69,0,0,1,2.38-1.19,22.17,22.17,0,0,1,2.78-.7c1-.18,2-.32,3-.44s1.95-.27,2.87-.44a19.72,19.72,0,0,0,2.55-.67,5.38,5.38,0,0,0,2-1.1Z"/><path class="cls-3" d="M335.25,43a13.4,13.4,0,0,0,11-12.45l.12-.13,15.94-.06L343,0l-19.4,30.39h9.06v61.8h11.13v-40h-8.57v-9Z"/></g></g></svg>