<?xml version="1.0" encoding="UTF-8"?>
<svg width="429px" height="111px" viewBox="0 0 429 111" version="1.1" xmlns="http://www.w3.org/2000/svg" xmlns:xlink="http://www.w3.org/1999/xlink">
    <!-- Generator: Sketch 57.1 (83088) - https://sketch.com -->
    <title>UYA11y-Logo_v2</title>
    <desc>Created with Sketch.</desc>
    <g id="Page-1" stroke="none" stroke-width="1" fill="none" fill-rule="evenodd">
        <g id="Desktop" transform="translate(-94.000000, -19.000000)" fill-rule="nonzero">
            <g id="UYA11y-Logo_v2" transform="translate(93.000000, 19.000000)">
                <path d="M367.72,7.21 L355.59,26.21 L357.37,26.16 L357.37,99.4 L368.51,99.4 L368.51,59.4 L359.94,59.4 L359.94,50.4 L360.02,50.3 C366.129155,49.2012682 370.682264,44.0479769 371.02,37.85 L371.13,37.72 L387.08,37.66 L367.72,7.21 Z" id="Path" fill="#E689A6"></path>
                <path d="M31.87,92.29 L31.87,85.94 L31.6,85.94 C30.1800571,88.4378929 28.0259331,90.4384003 25.43,91.67 C23.0054675,92.823747 20.3550445,93.4248739 17.67,93.43 C14.8609296,93.5210164 12.0604378,93.0729378 9.42,92.11 C7.424239,91.3373746 5.67305681,90.0421215 4.35,88.36 C3.05653335,86.6104742 2.16841985,84.5951397 1.75,82.46 C1.22897137,79.9202379 0.97757764,77.3325585 1,74.74 L1,46.74 L13.52,46.74 L13.52,72.45 C13.52,76.21 14.11,79.01 15.29,80.87 C16.47,82.73 18.55,83.65 21.55,83.65 C24.9566667,83.65 27.4266667,82.6333333 28.96,80.6 C30.4933333,78.5666667 31.2566667,75.2333333 31.25,70.6 L31.25,46.69 L43.77,46.69 L43.77,92.29 L31.87,92.29 Z" id="Path" fill="#767575"></path>
                <path d="M57.86,46.69 L57.86,52.51 L58,52.51 C59.3726693,50.1865361 61.3960105,48.3161622 63.82,47.13 C66.250171,46.0028272 68.901291,45.4322898 71.58,45.46 C74.7863148,45.3667156 77.9673655,46.0530264 80.85,47.46 C83.3652278,48.7595477 85.5612071,50.6003453 87.28,52.85 C89.0363932,55.1814917 90.3266235,57.8298591 91.08,60.65 C91.9223643,63.6950452 92.3462566,66.8405952 92.3401775,70 C92.3500202,72.9801472 91.9358679,75.9465546 91.11,78.81 C90.3392323,81.5222067 89.0673047,84.0660618 87.36,86.31 C85.6829952,88.4843993 83.5451086,90.2602795 81.1,91.51 C78.3734735,92.8577207 75.3605432,93.5234479 72.32,93.45 C69.6210031,93.4764593 66.9510032,92.8918626 64.51,91.74 C62.139305,90.5984685 60.1163263,88.8447599 58.65,86.66 L58.47,86.66 L58.47,108.27 L46,108.27 L46,46.69 L57.86,46.69 Z M74.13,82.85 C75.4856112,82.0567127 76.6337079,80.953169 77.48,79.63 C78.3713443,78.215341 78.985585,76.6441065 79.29,75 C79.6429997,73.2284357 79.8205246,71.426391 79.8200273,69.62 C79.8226795,67.8109218 79.6281981,66.006939 79.24,64.24 C78.8943285,62.5672042 78.2543971,60.9690688 77.35,59.52 C76.4987506,58.1661887 75.3538113,57.0212494 74,56.17 C72.4632152,55.2769618 70.7065212,54.8334572 68.93,54.89 C67.1242474,54.826724 65.3368288,55.2701146 63.77,56.17 C62.4147056,57.0023816 61.2686008,58.1348016 60.42,59.48 C59.5334831,60.9151619 58.9198441,62.5018087 58.61,64.16 C58.2277243,65.9555303 58.0234027,67.7843758 58,69.62 C58.0061313,71.4302357 58.2106864,73.2343445 58.61,75 C58.9365202,76.64402 59.5636935,78.2136484 60.46,79.63 C61.3133516,80.961374 62.4765211,82.0662135 63.85,82.85 C67.0771155,84.5038385 70.9028845,84.5038385 74.13,82.85 L74.13,82.85 Z" id="Shape" fill="#767575"></path>
                <path d="M128.69,106.3 C126.283333,107.893333 122.95,108.686667 118.69,108.680042 C117.4,108.680042 116.12,108.680042 114.85,108.55 C113.58,108.42 112.31,108.36 111.02,108.24 L111.02,97.92 L114.63,98.28 C115.863435,98.389923 117.102686,98.4199857 118.34,98.37 C119.786046,98.2934554 121.124941,97.5837681 122,96.43 C122.778091,95.3498246 123.19462,94.0512337 123.19,92.72 C123.194976,91.7547851 123.015069,90.7975468 122.66,89.9 L106.66,47.12 L120,47.12 L130.32,78.34 L130.5,78.34 L140.5,47.12 L153.5,47.12 L134.5,98.37 C133.046667,102.07 131.11,104.713333 128.69,106.3 Z" id="Path" fill="#767575"></path>
                <path d="M150.54,60 C152.590742,54.2807044 157.035326,49.7411658 162.71,47.57 C165.80418,46.3837586 169.096601,45.7999478 172.41,45.85 C175.739523,45.8016491 179.048,46.3852985 182.16,47.57 C187.855934,49.7222184 192.31983,54.266545 194.37,60 C195.535251,63.2029617 196.104626,66.5920988 196.05,70 C196.098526,73.3683302 195.529114,76.7170175 194.37,79.88 C193.331443,82.700213 191.709439,85.2695213 189.61,87.42 C187.504295,89.5439221 184.962357,91.1850925 182.16,92.23 C179.041219,93.3857556 175.735735,93.9553158 172.41,93.91 C169.100246,93.9591069 165.810457,93.389329 162.71,92.23 C159.923228,91.1774288 157.395902,89.5368839 155.3,87.42 C153.197221,85.2721598 151.574739,82.7020936 150.54,79.88 C149.380886,76.7170175 148.811474,73.3683302 148.86,70 C148.805374,66.5920988 149.374749,63.2029617 150.54,60 Z M161.91,75.3 C162.231536,76.9611207 162.844305,78.5522895 163.72,80 C164.559174,81.3699211 165.728064,82.5078707 167.12,83.31 C168.740213,84.1902822 170.56737,84.6185759 172.41,84.55 C174.268168,84.6144368 176.110364,84.1866611 177.75,83.31 C179.159712,82.517455 180.343763,81.3781506 181.19,80 C182.07032,78.5545609 182.683418,76.9625379 183,75.3 C183.359389,73.5428951 183.536992,71.7534685 183.530199,69.96 C183.534994,68.1567015 183.357422,66.3575293 183,64.59 C182.693465,62.9324236 182.083216,61.3457761 181.2,59.91 C180.331306,58.550088 179.152352,57.4156877 177.76,56.6 C176.12674,55.7037837 174.281859,55.26502 172.42,55.33 C170.573596,55.2604911 168.743607,55.6998267 167.13,56.6 C165.755627,57.4251426 164.591708,58.5582523 163.73,59.91 C162.847555,61.3471819 162.234216,62.9330541 161.92,64.59 C161.570818,66.3585917 161.396644,68.1572706 161.4,69.96 C161.391384,71.7525586 161.562236,73.5414777 161.91,75.3 L161.91,75.3 Z" id="Shape" fill="#767575"></path>
                <path d="M229.09,92.72 L229.09,86.37 L228.83,86.37 C227.406484,88.8650619 225.253374,90.8646279 222.66,92.1 C220.235715,93.2556218 217.585614,93.8600906 214.9,93.87 C212.089804,93.9653575 209.287859,93.5136501 206.65,92.54 C204.653968,91.7727776 202.902263,90.4805932 201.58,88.8 C200.280466,87.0502732 199.391801,85.0302689 198.98,82.89 C198.458971,80.3502379 198.207578,77.7625585 198.23,75.17 L198.23,47.12 L210.75,47.12 L210.75,72.88 C210.75,76.64 211.336667,79.4466667 212.51,81.3 C213.683333,83.1533333 215.773333,84.08 218.78,84.08 C222.19,84.08 224.65,83.08 226.18,81.08 C227.71,79.08 228.48,75.72 228.48,71.08 L228.48,47.12 L241,47.12 L241,92.72 L229.09,92.72 Z" id="Path" fill="#767575"></path>
                <path d="M256.5,47.12 L256.5,55.59 L256.67,55.59 C257.879828,52.7323833 259.908354,50.2967596 262.5,48.59 C263.781885,47.736864 265.174912,47.0639042 266.64,46.59 C268.124395,46.1198491 269.672942,45.8836872 271.23,45.8898767 C272.156103,45.9082298 273.075065,46.0563409 273.96,46.33 L273.96,58 C273.37,57.88 272.67,57.78 271.84,57.69 C271.049641,57.6031765 270.255114,57.5597779 269.46,57.56 C267.458074,57.4992133 265.468356,57.8923706 263.64,58.71 C262.119992,59.413948 260.802536,60.4906152 259.81,61.84 C258.80658,63.2244139 258.098582,64.8003891 257.73,66.47 C257.308589,68.3504501 257.103922,70.272976 257.12,72.2 L257.12,92.72 L244.59,92.72 L244.59,47.12 L256.5,47.12 Z" id="Path" fill="#767575"></path>
                <path d="M405,107.89 C402.586667,109.483333 399.236667,110.28 394.95,110.28 C393.65,110.28 392.38,110.28 391.11,110.14 C389.84,110 388.57,109.95 387.27,109.83 L387.27,99.51 L390.89,99.87 C392.119812,99.9847841 393.356062,100.014855 394.59,99.96 C396.04056,99.882714 397.381675,99.1645213 398.25,98 C399.032475,96.9220417 399.449476,95.6219802 399.44,94.29 C399.44816,93.3254339 399.271652,92.3682179 398.92,91.47 L383,48.72 L396.32,48.72 L406.64,79.93 L406.82,79.93 L416.82,48.72 L429.82,48.72 L410.65,100 C409.29,103.673333 407.406667,106.303333 405,107.89 Z" id="Path" fill="#767575"></path>
                <path d="M331,56.7 C330.898918,54.8570766 330.289768,53.0780814 329.24,51.56 C328.000066,49.8815596 326.365055,48.5350797 324.48,47.64 C322.447467,46.6696984 320.273722,46.0283761 318.04,45.74 C315.720489,45.4180161 313.381749,45.2543043 311.04,45.25 C308.508064,45.25 305.982393,45.5015816 303.5,46 C301.124007,46.4534006 298.841818,47.3054177 296.75,48.52 C294.768463,49.6755748 293.081135,51.2739153 291.82,53.19 C290.442564,55.3887259 289.679436,57.9163726 289.61,60.51 L302.2,60.51 C302.44,58.0433333 303.263333,56.28 304.67,55.22 C306.388475,54.0695773 308.435407,53.5113231 310.5,53.63 C311.54724,53.628743 312.593233,53.7022633 313.63,53.85 C314.529376,53.9737225 315.39574,54.2727029 316.18,54.73 C316.943841,55.1738336 317.572875,55.816692 318,56.59 C318.485568,57.5913346 318.712479,58.6983824 318.66,59.81 C318.793041,60.9236371 318.361658,62.0302288 317.51,62.76 C316.522208,63.5168287 315.377573,64.0430189 314.16,64.3 C312.565544,64.6872343 310.944354,64.9546472 309.31,65.1 C307.49,65.28 305.63,65.51 303.75,65.8 C301.87,66.09 300.01,66.5 298.15,66.99 C296.389083,67.4584336 294.719238,68.2189907 293.21,69.24 C291.739199,70.2788208 290.53339,71.6490582 289.69,73.24 C288.702899,75.2207806 288.231681,77.418652 288.32,79.63 C288.269698,81.7223308 288.675779,83.800507 289.51,85.72 C290.243948,87.3837833 291.361024,88.8503738 292.77,90 C294.233844,91.1471059 295.914009,91.9871885 297.71,92.47 C299.690753,93.0113831 301.736665,93.2772171 303.79,93.26 C306.600445,93.2523555 309.394201,92.8277315 312.08,92 C314.766573,91.1930939 317.198702,89.7048791 319.14,87.68 C319.197723,88.4355805 319.301246,89.1869616 319.45,89.93 C319.590563,90.6621463 319.781007,91.3838283 320.02,92.09 L331.02,92.09 L331,56.7 Z M318.61,74.45 C318.593623,75.3935774 318.520156,76.3352989 318.39,77.27 C318.222805,78.4962046 317.818629,79.678165 317.2,80.75 C316.474966,81.9916093 315.441609,83.0249655 314.2,83.75 C312.434846,84.666384 310.455739,85.0912187 308.47,84.98 C307.494178,84.9805065 306.520276,84.8934913 305.56,84.72 C304.685527,84.56802 303.847554,84.2525078 303.09,83.79 C302.377416,83.3487283 301.797036,82.7234375 301.41,81.98 C300.972167,81.10614 300.759076,80.1369201 300.79,79.16 C300.755376,78.1538752 300.968273,77.1546343 301.41,76.25 C301.807741,75.5050125 302.364169,74.8564159 303.04,74.35 C303.767538,73.833504 304.57028,73.432133 305.42,73.16 C306.330594,72.8669352 307.259202,72.6331132 308.2,72.46 C309.2,72.28 310.2,72.14 311.2,72.02 C312.2,71.9 313.15,71.75 314.07,71.58 C314.933995,71.4138026 315.785898,71.1899691 316.62,70.91 C317.35767,70.6906031 318.039684,70.3154954 318.62,69.81 L318.61,74.45 Z" id="Shape" fill="#767575"></path>
                <path d="M336.25,43 C342.357253,41.8978892 346.908676,36.7465056 347.25,30.55 L347.37,30.42 L363.31,30.36 L344,0 L324.6,30.39 L333.66,30.39 L333.66,92.19 L344.79,92.19 L344.79,52.19 L336.22,52.19 L336.22,43.19 L336.25,43 Z" id="Path" fill="#3DA1A7"></path>
            </g>
        </g>
    </g>
</svg>